# xmcd
#
# Track frame offsets: 
#        165
#        16312
#        30125
#        43697
#        62915
#        84597
#        101505
#        121162
#        137645
#        154517
#        168357
#        186342
#        205917
#
# Disc length: 2960 seconds
#
# Revision: 0
# Processed by: cddbd v1.5.1PL0 Copyright (c) Steve Scherf et al.
# Submitted via: ExactAudioCopy v0.95a3
#
DISCID=a00b8e0d
DTITLE=Александр Назаров - Верни Мне Прошлое, Скрипач
DYEAR=1993
DGENRE=Pop
TTITLE0=Верни Мне Прошлое, Скрипач
TTITLE1=Ночь - Распутница
TTITLE2=Танечка-Танюша
TTITLE3=Научи Меня Любить
TTITLE4=Всё Просто
TTITLE5=Если Уеду - Меня Не Ищи
TTITLE6=А Ты - Вольная
TTITLE7=Дядя Ваня
TTITLE8=Валя - Валюша
TTITLE9=Сгинь, Нечистая
TTITLE10=Жизнь - Дорога
TTITLE11=Королева
TTITLE12=Инструментал
EXTD=
EXTT0=
EXTT1=
EXTT2=
EXTT3=
EXTT4=
EXTT5=
EXTT6=
EXTT7=
EXTT8=
EXTT9=
EXTT10=
EXTT11=
EXTT12=
PLAYORDER=
